<svg xmlns="http://www.w3.org/2000/svg" viewBox="0 0 900 520" role="img" aria-label="Today's Work placeholder screenshot">
<defs><linearGradient id="bg" x1="0" x2="1"><stop stop-color="#eef8ff"/><stop offset="1" stop-color="#ffffff"/></linearGradient><filter id="shadow" x="-20%" y="-20%" width="140%" height="140%"><feDropShadow dx="0" dy="16" stdDeviation="16" flood-color="#072d5c" flood-opacity=".14"/></filter></defs>
<rect width="900" height="520" rx="34" fill="url(#bg)"/><rect x="24" y="24" width="852" height="472" rx="28" fill="#f8fcff" filter="url(#shadow)"/><rect x="24" y="24" width="852" height="58" rx="28" fill="#072d5c"/><circle cx="58" cy="53" r="8" fill="#28b4ff"/><circle cx="84" cy="53" r="8" fill="#8bdcff"/><circle cx="110" cy="53" r="8" fill="#d8f4ff"/><text x="140" y="59" font-family="Segoe UI, Arial" font-size="20" font-weight="800" fill="#fff">Today's Work</text><rect x="46" y="82" width="808" height="356" rx="22" fill="#fff" stroke="#d8e7f2"/><circle cx="144" cy="180" r="54" fill="#e7f6ff"/><rect x="232" y="130" width="440" height="18" rx="9" fill="#072d5c"/><rect x="232" y="172" width="520" height="14" rx="7" fill="#d8e7f2"/><rect x="232" y="208" width="380" height="14" rx="7" fill="#d8e7f2"/><rect x="90" y="280" width="690" height="78" rx="16" fill="#f3faff" stroke="#d8e7f2"/><rect x="112" y="308" width="188" height="12" rx="6" fill="#d8e7f2"/><rect x="340" y="308" width="130" height="12" rx="6" fill="#28b4ff"/><rect x="520" y="308" width="180" height="12" rx="6" fill="#d8e7f2"/></svg>