<svg xmlns="http://www.w3.org/2000/svg" viewBox="0 0 900 520" role="img" aria-label="Operations Dashboard placeholder screenshot">
<defs><linearGradient id="bg" x1="0" x2="1"><stop stop-color="#eef8ff"/><stop offset="1" stop-color="#ffffff"/></linearGradient><filter id="shadow" x="-20%" y="-20%" width="140%" height="140%"><feDropShadow dx="0" dy="16" stdDeviation="16" flood-color="#072d5c" flood-opacity=".14"/></filter></defs>
<rect width="900" height="520" rx="34" fill="url(#bg)"/><rect x="24" y="24" width="852" height="472" rx="28" fill="#f8fcff" filter="url(#shadow)"/><rect x="24" y="24" width="852" height="58" rx="28" fill="#072d5c"/><circle cx="58" cy="53" r="8" fill="#28b4ff"/><circle cx="84" cy="53" r="8" fill="#8bdcff"/><circle cx="110" cy="53" r="8" fill="#d8f4ff"/><text x="140" y="59" font-family="Segoe UI, Arial" font-size="20" font-weight="800" fill="#fff">Operations Dashboard</text><rect x="40" y="94" width="140" height="84" rx="14" fill="#ffffff" stroke="#d8e7f2"/><text x="58" y="130" font-size="18" font-weight="800" fill="#072d5c">42</text><rect x="58" y="148" width="86" height="10" rx="5" fill="#28b4ff" opacity=".75"/><rect x="210" y="94" width="140" height="84" rx="14" fill="#ffffff" stroke="#d8e7f2"/><text x="228" y="130" font-size="18" font-weight="800" fill="#072d5c">18</text><rect x="228" y="148" width="86" height="10" rx="5" fill="#28b4ff" opacity=".75"/><rect x="380" y="94" width="140" height="84" rx="14" fill="#ffffff" stroke="#d8e7f2"/><text x="398" y="130" font-size="18" font-weight="800" fill="#072d5c">7</text><rect x="398" y="148" width="86" height="10" rx="5" fill="#28b4ff" opacity=".75"/><rect x="40" y="220" width="530" height="210" rx="18" fill="#fff" stroke="#d8e7f2"/><path d="M75 378 C145 285 210 318 276 260 C350 196 420 246 536 168" fill="none" stroke="#1580e0" stroke-width="10" stroke-linecap="round"/><rect x="615" y="94" width="245" height="336" rx="18" fill="#fff" stroke="#d8e7f2"/><rect x="642" y="126" width="175" height="14" rx="7" fill="#d8e7f2"/><rect x="642" y="170" width="145" height="14" rx="7" fill="#d8e7f2"/><rect x="642" y="214" width="190" height="14" rx="7" fill="#d8e7f2"/><rect x="642" y="258" width="120" height="14" rx="7" fill="#d8e7f2"/></svg>