<svg xmlns="http://www.w3.org/2000/svg" viewBox="0 0 900 520" role="img" aria-label="Inventory Screen placeholder screenshot">
<defs><linearGradient id="bg" x1="0" x2="1"><stop stop-color="#eef8ff"/><stop offset="1" stop-color="#ffffff"/></linearGradient><filter id="shadow" x="-20%" y="-20%" width="140%" height="140%"><feDropShadow dx="0" dy="16" stdDeviation="16" flood-color="#072d5c" flood-opacity=".14"/></filter></defs>
<rect width="900" height="520" rx="34" fill="url(#bg)"/><rect x="24" y="24" width="852" height="472" rx="28" fill="#f8fcff" filter="url(#shadow)"/><rect x="24" y="24" width="852" height="58" rx="28" fill="#072d5c"/><circle cx="58" cy="53" r="8" fill="#28b4ff"/><circle cx="84" cy="53" r="8" fill="#8bdcff"/><circle cx="110" cy="53" r="8" fill="#d8f4ff"/><text x="140" y="59" font-family="Segoe UI, Arial" font-size="20" font-weight="800" fill="#fff">Inventory Screen</text><rect x="40" y="86" width="820" height="360" rx="22" fill="#fff" stroke="#d8e7f2"/><rect x="40" y="86" width="820" height="52" rx="22" fill="#072d5c"/><text x="72" y="120" font-size="16" font-weight="800" fill="#fff">Inventory Items</text><rect x="54" y="118" width="792" height="30" rx="8" fill="#ffffff"/><rect x="80" y="126" width="120" height="10" rx="5" fill="#d8e7f2"/><rect x="250" y="126" width="170" height="10" rx="5" fill="#d8e7f2"/><rect x="470" y="126" width="90" height="10" rx="5" fill="#28b4ff" opacity=".7"/><rect x="610" y="126" width="150" height="10" rx="5" fill="#d8e7f2"/><rect x="54" y="160" width="792" height="30" rx="8" fill="#f6fbff"/><rect x="80" y="168" width="120" height="10" rx="5" fill="#d8e7f2"/><rect x="250" y="168" width="170" height="10" rx="5" fill="#d8e7f2"/><rect x="470" y="168" width="90" height="10" rx="5" fill="#28b4ff" opacity=".7"/><rect x="610" y="168" width="150" height="10" rx="5" fill="#d8e7f2"/><rect x="54" y="202" width="792" height="30" rx="8" fill="#ffffff"/><rect x="80" y="210" width="120" height="10" rx="5" fill="#d8e7f2"/><rect x="250" y="210" width="170" height="10" rx="5" fill="#d8e7f2"/><rect x="470" y="210" width="90" height="10" rx="5" fill="#28b4ff" opacity=".7"/><rect x="610" y="210" width="150" height="10" rx="5" fill="#d8e7f2"/><rect x="54" y="244" width="792" height="30" rx="8" fill="#f6fbff"/><rect x="80" y="252" width="120" height="10" rx="5" fill="#d8e7f2"/><rect x="250" y="252" width="170" height="10" rx="5" fill="#d8e7f2"/><rect x="470" y="252" width="90" height="10" rx="5" fill="#28b4ff" opacity=".7"/><rect x="610" y="252" width="150" height="10" rx="5" fill="#d8e7f2"/><rect x="54" y="286" width="792" height="30" rx="8" fill="#ffffff"/><rect x="80" y="294" width="120" height="10" rx="5" fill="#d8e7f2"/><rect x="250" y="294" width="170" height="10" rx="5" fill="#d8e7f2"/><rect x="470" y="294" width="90" height="10" rx="5" fill="#28b4ff" opacity=".7"/><rect x="610" y="294" width="150" height="10" rx="5" fill="#d8e7f2"/><rect x="54" y="328" width="792" height="30" rx="8" fill="#f6fbff"/><rect x="80" y="336" width="120" height="10" rx="5" fill="#d8e7f2"/><rect x="250" y="336" width="170" height="10" rx="5" fill="#d8e7f2"/><rect x="470" y="336" width="90" height="10" rx="5" fill="#28b4ff" opacity=".7"/><rect x="610" y="336" width="150" height="10" rx="5" fill="#d8e7f2"/><rect x="54" y="370" width="792" height="30" rx="8" fill="#ffffff"/><rect x="80" y="378" width="120" height="10" rx="5" fill="#d8e7f2"/><rect x="250" y="378" width="170" height="10" rx="5" fill="#d8e7f2"/><rect x="470" y="378" width="90" height="10" rx="5" fill="#28b4ff" opacity=".7"/><rect x="610" y="378" width="150" height="10" rx="5" fill="#d8e7f2"/></svg>