<svg xmlns="http://www.w3.org/2000/svg" viewBox="0 0 900 520" role="img" aria-label="Invoice Template placeholder screenshot">
<defs><linearGradient id="bg" x1="0" x2="1"><stop stop-color="#eef8ff"/><stop offset="1" stop-color="#ffffff"/></linearGradient><filter id="shadow" x="-20%" y="-20%" width="140%" height="140%"><feDropShadow dx="0" dy="16" stdDeviation="16" flood-color="#072d5c" flood-opacity=".14"/></filter></defs>
<rect width="900" height="520" rx="34" fill="url(#bg)"/><rect x="24" y="24" width="852" height="472" rx="28" fill="#f8fcff" filter="url(#shadow)"/><rect x="24" y="24" width="852" height="58" rx="28" fill="#072d5c"/><circle cx="58" cy="53" r="8" fill="#28b4ff"/><circle cx="84" cy="53" r="8" fill="#8bdcff"/><circle cx="110" cy="53" r="8" fill="#d8f4ff"/><text x="140" y="59" font-family="Segoe UI, Arial" font-size="20" font-weight="800" fill="#fff">Invoice Template</text><rect x="88" y="72" width="724" height="390" rx="18" fill="#fff" stroke="#d8e7f2"/><text x="124" y="118" font-size="31" font-weight="900" fill="#072d5c">INVOICE</text><rect x="124" y="150" width="220" height="12" rx="6" fill="#d8e7f2"/><rect x="124" y="178" width="164" height="12" rx="6" fill="#d8e7f2"/><rect x="560" y="105" width="190" height="14" rx="7" fill="#28b4ff"/><rect x="124" y="230" width="626" height="2" fill="#d8e7f2"/><rect x="124" y="260" width="626" height="40" rx="8" fill="#f1f8ff"/><rect x="124" y="320" width="626" height="2" fill="#d8e7f2"/><rect x="550" y="350" width="200" height="18" rx="9" fill="#072d5c" opacity=".9"/><rect x="124" y="405" width="250" height="2" fill="#072d5c"/><rect x="500" y="405" width="250" height="2" fill="#072d5c"/></svg>